<svg width="24" height="24" viewBox="0 0 24 24" fill="none" xmlns="http://www.w3.org/2000/svg">
<path d="M24 12C24.0001 14.8255 23.0032 17.5605 21.1849 19.7232C19.3665 21.8859 16.8433 23.3376 14.0597 23.8225C11.2761 24.3075 8.41064 23.7947 5.96801 22.3744C3.52539 20.9541 1.66229 18.7174 0.706855 16.0583C-0.248576 13.3992 -0.235048 10.4883 0.745054 7.83816C1.72516 5.18805 3.60897 2.96879 6.06468 1.57125C8.5204 0.173712 11.3905 -0.312456 14.1695 0.198375C16.9485 0.709206 19.4581 2.18427 21.2563 4.36376C21.3455 4.46421 21.4136 4.58162 21.4565 4.70898C21.4994 4.83634 21.5162 4.97103 21.5058 5.10502C21.4955 5.239 21.4582 5.36953 21.3963 5.4888C21.3344 5.60807 21.2491 5.71364 21.1455 5.7992C21.0418 5.88475 20.922 5.94855 20.7932 5.98677C20.6643 6.02498 20.5291 6.03684 20.3956 6.02164C20.2621 6.00643 20.133 5.96446 20.0161 5.89825C19.8991 5.83204 19.7967 5.74293 19.715 5.63626C18.2442 3.85291 16.201 2.63418 13.933 2.1874C11.665 1.74062 9.31221 2.09339 7.27495 3.1857C5.23769 4.278 3.64178 6.04237 2.7587 8.17865C1.87562 10.3149 1.75992 12.6912 2.43128 14.9032C3.10265 17.1151 4.51961 19.0262 6.44111 20.3113C8.36261 21.5963 10.67 22.176 12.9707 21.9516C15.2714 21.7273 17.4233 20.7129 19.0604 19.0808C20.6975 17.4488 21.7186 15.3 21.95 13H12C11.7348 13 11.4804 12.8947 11.2929 12.7071C11.1054 12.5196 11 12.2652 11 12C11 11.7348 11.1054 11.4804 11.2929 11.2929C11.4804 11.1054 11.7348 11 12 11H23C23.2652 11 23.5196 11.1054 23.7071 11.2929C23.8946 11.4804 24 11.7348 24 12Z" fill="#F2DFCE"/>
</svg>
