<svg width="376" height="387" viewBox="0 0 376 387" fill="none" xmlns="http://www.w3.org/2000/svg">
<rect width="376" height="387"/>
<path d="M153.59 236H83.7656V229.652H103.297V95.8633H83.7656V89.5156H196.314L197.535 133.461H192.652L189.234 121.986C189.072 121.335 188.827 120.521 188.502 119.545C183.456 103.757 175.074 95.8633 163.355 95.8633H124.293V156.898H174.586V163.979H124.293V229.652H153.59V236Z" fill="#503036"/>
<path d="M263.088 300H194.606V293.525H218.264V157.061H204.816C192.033 158.057 182.985 166.689 177.673 182.959L173.688 199.644H166.716L167.961 150.586H290.979L292.224 199.644H285.251L281.267 182.959C281.101 182.627 281.018 182.129 281.018 181.465C276.535 165.195 267.57 157.061 254.123 157.061H239.68V293.525H256.613C257.443 293.525 258.273 293.608 259.104 293.774C261.76 294.272 263.088 296.348 263.088 300Z" fill="#503036"/>
</svg>
